<?xml version="1.0" encoding="UTF-8" standalone="no"?>
<!DOCTYPE svg PUBLIC "-//W3C//DTD SVG 1.1//EN"
 "http://www.w3.org/Graphics/SVG/1.1/DTD/svg11.dtd">
<!-- Generated by graphviz version 9.0.0 (20230911.1827)
 -->
<!-- Title: G Pages: 1 -->
<svg width="746pt" height="437pt"
 viewBox="0.00 0.00 746.00 436.90" xmlns="http://www.w3.org/2000/svg" xmlns:xlink="http://www.w3.org/1999/xlink">
<g id="graph0" class="graph" transform="scale(1 1) rotate(0) translate(4 432.9)">
<title>G</title><style>.edge>path:hover{stroke-width:8}</style>
<polygon fill="white" stroke="none" points="-4,4 -4,-432.9 742,-432.9 742,4 -4,4"/>
<!-- gites_cli -->
<g id="node1" class="node">
<title>gites_cli</title><style>.edge>path:hover{stroke-width:8}</style>
<ellipse fill="#964040" stroke="black" cx="388.56" cy="-18" rx="29.92" ry="18"/>
<text text-anchor="middle" x="388.56" y="-14.5" font-family="Helvetica,sans-Serif" font-size="10.00" fill="#ffffff">gites.cli</text>
</g>
<!-- gites_subpackage -->
<g id="node2" class="node">
<title>gites_subpackage</title><style>.edge>path:hover{stroke-width:8}</style>
<ellipse fill="#f31616" stroke="black" cx="689.56" cy="-299.56" rx="48.44" ry="22.63"/>
<text text-anchor="middle" x="689.56" y="-302.06" font-family="Helvetica,sans-Serif" font-size="10.00" fill="#ffffff">gites.</text>
<text text-anchor="middle" x="689.56" y="-290.06" font-family="Helvetica,sans-Serif" font-size="10.00" fill="#ffffff">subpackage</text>
</g>
<!-- gites_subpackage&#45;&gt;gites_cli -->
<g id="edge1" class="edge">
<title>gites_subpackage&#45;&gt;gites_cli</title><style>.edge>path:hover{stroke-width:8}</style>
<path fill="none" stroke="black" d="M689.56,-200.34C673.34,-145.01 710.53,-113.56 670.56,-72 637.99,-38.15 500.37,-25.41 430.15,-21.05"/>
<polygon fill="#f31616" stroke="black" points="430.37,-17.55 420.18,-20.46 429.96,-24.54 430.37,-17.55"/>
</g>
<!-- gites_tests_test_datastore_json_handler -->
<g id="node11" class="node">
<title>gites_tests_test_datastore_json_handler</title><style>.edge>path:hover{stroke-width:8}</style>
<ellipse fill="#ac4949" stroke="black" cx="563.56" cy="-103.11" rx="97.76" ry="31.11"/>
<text text-anchor="middle" x="563.56" y="-111.61" font-family="Helvetica,sans-Serif" font-size="10.00" fill="#ffffff">gites.</text>
<text text-anchor="middle" x="563.56" y="-99.61" font-family="Helvetica,sans-Serif" font-size="10.00" fill="#ffffff">tests.</text>
<text text-anchor="middle" x="563.56" y="-87.61" font-family="Helvetica,sans-Serif" font-size="10.00" fill="#ffffff">test_datastore_json_handler</text>
</g>
<!-- gites_subpackage&#45;&gt;gites_tests_test_datastore_json_handler -->
<g id="edge2" class="edge">
<title>gites_subpackage&#45;&gt;gites_tests_test_datastore_json_handler</title><style>.edge>path:hover{stroke-width:8}</style>
<path fill="none" stroke="black" d="M693.01,-276.67C695.33,-256.83 696.8,-227.03 689.56,-202.34"/>
<path fill="none" stroke="black" d="M689.56,-200.34C681.05,-171.3 656.6,-149.45 631.48,-133.98"/>
<polygon fill="#f31616" stroke="black" points="633.56,-131.14 623.16,-129.12 630.03,-137.18 633.56,-131.14"/>
</g>
<!-- gites_subpackage__subprocess_handler -->
<g id="node3" class="node">
<title>gites_subpackage__subprocess_handler</title><style>.edge>path:hover{stroke-width:8}</style>
<ellipse fill="#e72222" stroke="black" cx="232.56" cy="-299.56" rx="76.54" ry="31.11"/>
<text text-anchor="middle" x="232.56" y="-308.06" font-family="Helvetica,sans-Serif" font-size="10.00" fill="#ffffff">gites.</text>
<text text-anchor="middle" x="232.56" y="-296.06" font-family="Helvetica,sans-Serif" font-size="10.00" fill="#ffffff">subpackage.</text>
<text text-anchor="middle" x="232.56" y="-284.06" font-family="Helvetica,sans-Serif" font-size="10.00" fill="#ffffff">_subprocess_handler</text>
</g>
<!-- gites_subpackage_creat_repo_manager -->
<g id="node6" class="node">
<title>gites_subpackage_creat_repo_manager</title><style>.edge>path:hover{stroke-width:8}</style>
<ellipse fill="#ac4949" stroke="black" cx="505.56" cy="-201.34" rx="73.89" ry="31.11"/>
<text text-anchor="middle" x="505.56" y="-209.84" font-family="Helvetica,sans-Serif" font-size="10.00" fill="#ffffff">gites.</text>
<text text-anchor="middle" x="505.56" y="-197.84" font-family="Helvetica,sans-Serif" font-size="10.00" fill="#ffffff">subpackage.</text>
<text text-anchor="middle" x="505.56" y="-185.84" font-family="Helvetica,sans-Serif" font-size="10.00" fill="#ffffff">creat_repo_manager</text>
</g>
<!-- gites_subpackage__subprocess_handler&#45;&gt;gites_subpackage_creat_repo_manager -->
<g id="edge3" class="edge">
<title>gites_subpackage__subprocess_handler&#45;&gt;gites_subpackage_creat_repo_manager</title><style>.edge>path:hover{stroke-width:8}</style>
<path fill="none" stroke="black" d="M289.44,-278.59C299.15,-275.19 309.14,-271.71 318.56,-268.45 365.17,-252.3 377.07,-248.95 423.56,-232.45 428.96,-230.53 434.55,-228.53 440.16,-226.5"/>
<polygon fill="#e72222" stroke="black" points="441.3,-229.81 449.5,-223.1 438.91,-223.23 441.3,-229.81"/>
</g>
<!-- gites_subpackage_git_push_manager -->
<g id="node8" class="node">
<title>gites_subpackage_git_push_manager</title><style>.edge>path:hover{stroke-width:8}</style>
<ellipse fill="#a83838" stroke="black" cx="346.56" cy="-201.34" rx="67.53" ry="31.11"/>
<text text-anchor="middle" x="346.56" y="-209.84" font-family="Helvetica,sans-Serif" font-size="10.00" fill="#ffffff">gites.</text>
<text text-anchor="middle" x="346.56" y="-197.84" font-family="Helvetica,sans-Serif" font-size="10.00" fill="#ffffff">subpackage.</text>
<text text-anchor="middle" x="346.56" y="-185.84" font-family="Helvetica,sans-Serif" font-size="10.00" fill="#ffffff">git_push_manager</text>
</g>
<!-- gites_subpackage__subprocess_handler&#45;&gt;gites_subpackage_git_push_manager -->
<g id="edge4" class="edge">
<title>gites_subpackage__subprocess_handler&#45;&gt;gites_subpackage_git_push_manager</title><style>.edge>path:hover{stroke-width:8}</style>
<path fill="none" stroke="black" d="M265.23,-270.99C277.96,-260.24 292.7,-247.8 306.1,-236.49"/>
<polygon fill="#e72222" stroke="black" points="308.13,-239.35 313.52,-230.23 303.62,-234 308.13,-239.35"/>
</g>
<!-- gites_subpackage_pull_manager -->
<g id="node9" class="node">
<title>gites_subpackage_pull_manager</title><style>.edge>path:hover{stroke-width:8}</style>
<ellipse fill="#a83838" stroke="black" cx="208.56" cy="-201.34" rx="52.15" ry="31.11"/>
<text text-anchor="middle" x="208.56" y="-209.84" font-family="Helvetica,sans-Serif" font-size="10.00" fill="#ffffff">gites.</text>
<text text-anchor="middle" x="208.56" y="-197.84" font-family="Helvetica,sans-Serif" font-size="10.00" fill="#ffffff">subpackage.</text>
<text text-anchor="middle" x="208.56" y="-185.84" font-family="Helvetica,sans-Serif" font-size="10.00" fill="#ffffff">pull_manager</text>
</g>
<!-- gites_subpackage__subprocess_handler&#45;&gt;gites_subpackage_pull_manager -->
<g id="edge5" class="edge">
<title>gites_subpackage__subprocess_handler&#45;&gt;gites_subpackage_pull_manager</title><style>.edge>path:hover{stroke-width:8}</style>
<path fill="none" stroke="black" d="M224.97,-268.12C223.02,-260.32 220.9,-251.8 218.84,-243.56"/>
<polygon fill="#e72222" stroke="black" points="222.29,-242.91 216.47,-234.05 215.49,-244.6 222.29,-242.91"/>
</g>
<!-- gites_subpackage_repo_cloner -->
<g id="node10" class="node">
<title>gites_subpackage_repo_cloner</title><style>.edge>path:hover{stroke-width:8}</style>
<ellipse fill="#a13535" stroke="black" cx="87.56" cy="-201.34" rx="50.56" ry="31.11"/>
<text text-anchor="middle" x="87.56" y="-209.84" font-family="Helvetica,sans-Serif" font-size="10.00" fill="#ffffff">gites.</text>
<text text-anchor="middle" x="87.56" y="-197.84" font-family="Helvetica,sans-Serif" font-size="10.00" fill="#ffffff">subpackage.</text>
<text text-anchor="middle" x="87.56" y="-185.84" font-family="Helvetica,sans-Serif" font-size="10.00" fill="#ffffff">repo_cloner</text>
</g>
<!-- gites_subpackage__subprocess_handler&#45;&gt;gites_subpackage_repo_cloner -->
<g id="edge6" class="edge">
<title>gites_subpackage__subprocess_handler&#45;&gt;gites_subpackage_repo_cloner</title><style>.edge>path:hover{stroke-width:8}</style>
<path fill="none" stroke="black" d="M193.32,-272.52C174,-259.7 150.67,-244.22 130.83,-231.05"/>
<polygon fill="#e72222" stroke="black" points="132.94,-228.25 122.67,-225.64 129.07,-234.08 132.94,-228.25"/>
</g>
<!-- gites_subpackage__timing -->
<g id="node4" class="node">
<title>gites_subpackage__timing</title><style>.edge>path:hover{stroke-width:8}</style>
<ellipse fill="#c24747" stroke="black" cx="87.56" cy="-299.56" rx="50.56" ry="31.11"/>
<text text-anchor="middle" x="87.56" y="-308.06" font-family="Helvetica,sans-Serif" font-size="10.00" fill="#ffffff">gites.</text>
<text text-anchor="middle" x="87.56" y="-296.06" font-family="Helvetica,sans-Serif" font-size="10.00" fill="#ffffff">subpackage.</text>
<text text-anchor="middle" x="87.56" y="-284.06" font-family="Helvetica,sans-Serif" font-size="10.00" fill="#ffffff">_timing</text>
</g>
<!-- gites_subpackage__timing&#45;&gt;gites_subpackage_repo_cloner -->
<g id="edge7" class="edge">
<title>gites_subpackage__timing&#45;&gt;gites_subpackage_repo_cloner</title><style>.edge>path:hover{stroke-width:8}</style>
<path fill="none" stroke="black" d="M87.56,-268.12C87.56,-260.57 87.56,-252.35 87.56,-244.36"/>
<polygon fill="#c24747" stroke="black" points="91.06,-244.43 87.56,-234.43 84.06,-244.43 91.06,-244.43"/>
</g>
<!-- gites_subpackage_config_json_handler -->
<g id="node5" class="node">
<title>gites_subpackage_config_json_handler</title><style>.edge>path:hover{stroke-width:8}</style>
<ellipse fill="#ce3b3b" stroke="black" cx="409.56" cy="-397.79" rx="71.77" ry="31.11"/>
<text text-anchor="middle" x="409.56" y="-406.29" font-family="Helvetica,sans-Serif" font-size="10.00" fill="#ffffff">gites.</text>
<text text-anchor="middle" x="409.56" y="-394.29" font-family="Helvetica,sans-Serif" font-size="10.00" fill="#ffffff">subpackage.</text>
<text text-anchor="middle" x="409.56" y="-382.29" font-family="Helvetica,sans-Serif" font-size="10.00" fill="#ffffff">config_json_handler</text>
</g>
<!-- gites_subpackage_config_json_handler&#45;&gt;gites_cli -->
<g id="edge8" class="edge">
<title>gites_subpackage_config_json_handler&#45;&gt;gites_cli</title><style>.edge>path:hover{stroke-width:8}</style>
<path fill="none" stroke="black" d="M337.62,-394.97C238.14,-390.76 66.41,-376.82 27.56,-330.68 -18.36,-276.12 1.87,-236.75 27.56,-170.23 41.85,-133.21 75.05,-141.77 87.56,-104.11"/>
<path fill="none" stroke="black" d="M87.56,-102.11C103.84,-52.03 268.76,-30.1 347.34,-22.43"/>
<polygon fill="#ce3b3b" stroke="black" points="347.6,-25.92 357.22,-21.5 346.94,-18.95 347.6,-25.92"/>
</g>
<!-- gites_subpackage_datastore_json_handler -->
<g id="node7" class="node">
<title>gites_subpackage_datastore_json_handler</title><style>.edge>path:hover{stroke-width:8}</style>
<ellipse fill="#f30c0c" stroke="black" cx="409.56" cy="-299.56" rx="82.38" ry="31.11"/>
<text text-anchor="middle" x="409.56" y="-308.06" font-family="Helvetica,sans-Serif" font-size="10.00" fill="#ffffff">gites.</text>
<text text-anchor="middle" x="409.56" y="-296.06" font-family="Helvetica,sans-Serif" font-size="10.00" fill="#ffffff">subpackage.</text>
<text text-anchor="middle" x="409.56" y="-284.06" font-family="Helvetica,sans-Serif" font-size="10.00" fill="#ffffff">datastore_json_handler</text>
</g>
<!-- gites_subpackage_config_json_handler&#45;&gt;gites_subpackage_datastore_json_handler -->
<g id="edge9" class="edge">
<title>gites_subpackage_config_json_handler&#45;&gt;gites_subpackage_datastore_json_handler</title><style>.edge>path:hover{stroke-width:8}</style>
<path fill="none" stroke="black" d="M409.56,-366.34C409.56,-358.8 409.56,-350.58 409.56,-342.58"/>
<polygon fill="#ce3b3b" stroke="black" points="413.06,-342.66 409.56,-332.66 406.06,-342.66 413.06,-342.66"/>
</g>
<!-- gites_subpackage_datastore_json_handler&#45;&gt;gites_subpackage_creat_repo_manager -->
<g id="edge10" class="edge">
<title>gites_subpackage_datastore_json_handler&#45;&gt;gites_subpackage_creat_repo_manager</title><style>.edge>path:hover{stroke-width:8}</style>
<path fill="none" stroke="black" d="M438.1,-269.95C447.96,-260.07 459.13,-248.87 469.51,-238.47"/>
<polygon fill="#f30c0c" stroke="black" points="471.97,-240.96 476.55,-231.41 467.01,-236.02 471.97,-240.96"/>
</g>
<!-- gites_subpackage_datastore_json_handler&#45;&gt;gites_subpackage_git_push_manager -->
<g id="edge11" class="edge">
<title>gites_subpackage_datastore_json_handler&#45;&gt;gites_subpackage_git_push_manager</title><style>.edge>path:hover{stroke-width:8}</style>
<path fill="none" stroke="black" d="M390.14,-268.91C384.35,-260.05 377.91,-250.22 371.8,-240.88"/>
<polygon fill="#f30c0c" stroke="black" points="374.82,-239.12 366.42,-232.67 368.97,-242.95 374.82,-239.12"/>
</g>
<!-- gites_subpackage_datastore_json_handler&#45;&gt;gites_subpackage_pull_manager -->
<g id="edge12" class="edge">
<title>gites_subpackage_datastore_json_handler&#45;&gt;gites_subpackage_pull_manager</title><style>.edge>path:hover{stroke-width:8}</style>
<path fill="none" stroke="black" d="M358.59,-274.75C332,-262.27 298.97,-246.65 269.56,-232.45 265.89,-230.68 262.1,-228.83 258.28,-226.97"/>
<polygon fill="#f30c0c" stroke="black" points="260.09,-223.96 249.57,-222.7 257.01,-230.25 260.09,-223.96"/>
</g>
<!-- gites_subpackage_datastore_json_handler&#45;&gt;gites_subpackage_repo_cloner -->
<g id="edge13" class="edge">
<title>gites_subpackage_datastore_json_handler&#45;&gt;gites_subpackage_repo_cloner</title><style>.edge>path:hover{stroke-width:8}</style>
<path fill="none" stroke="black" d="M350.13,-277.84C339.67,-274.49 328.84,-271.23 318.56,-268.45 243.57,-248.22 220.87,-258.08 147.56,-232.45 143.41,-231 139.18,-229.32 134.98,-227.52"/>
<polygon fill="#f30c0c" stroke="black" points="136.61,-224.41 126.06,-223.45 133.7,-230.78 136.61,-224.41"/>
</g>
<!-- gites_subpackage_datastore_json_handler&#45;&gt;gites_tests_test_datastore_json_handler -->
<g id="edge14" class="edge">
<title>gites_subpackage_datastore_json_handler&#45;&gt;gites_tests_test_datastore_json_handler</title><style>.edge>path:hover{stroke-width:8}</style>
<path fill="none" stroke="black" d="M488.2,-290.03C525.08,-281.63 565.83,-265.07 588.56,-232.45 606.49,-206.72 597.78,-171.38 585.97,-144.3"/>
<polygon fill="#f30c0c" stroke="black" points="589.2,-142.95 581.8,-135.37 582.86,-145.91 589.2,-142.95"/>
</g>
<!-- gites_subpackage_git_push_manager&#45;&gt;gites_cli -->
<g id="edge15" class="edge">
<title>gites_subpackage_git_push_manager&#45;&gt;gites_cli</title><style>.edge>path:hover{stroke-width:8}</style>
<path fill="none" stroke="black" d="M296.1,-180.4C287.27,-176.97 278.16,-173.47 269.56,-170.23 189.03,-139.86 60.43,-185.78 87.56,-104.11"/>
</g>
<!-- gites_subpackage_pull_manager&#45;&gt;gites_cli -->
<g id="edge16" class="edge">
<title>gites_subpackage_pull_manager&#45;&gt;gites_cli</title><style>.edge>path:hover{stroke-width:8}</style>
<path fill="none" stroke="black" d="M170.22,-180.08C132.23,-158.62 80.62,-125 87.56,-104.11"/>
</g>
<!-- gites_subpackage_repo_cloner&#45;&gt;gites_cli -->
<g id="edge17" class="edge">
<title>gites_subpackage_repo_cloner&#45;&gt;gites_cli</title><style>.edge>path:hover{stroke-width:8}</style>
<path fill="none" stroke="black" d="M82.75,-170.08C80.83,-150.73 80.5,-125.36 87.56,-104.11"/>
</g>
</g>
</svg>
