<?xml version="1.0" encoding="UTF-8" standalone="no"?>
<!DOCTYPE svg PUBLIC "-//W3C//DTD SVG 1.1//EN"
 "http://www.w3.org/Graphics/SVG/1.1/DTD/svg11.dtd">
<!-- Generated by graphviz version 9.0.0 (20230911.1827)
 -->
<!-- Title: G Pages: 1 -->
<svg width="286pt" height="359pt"
 viewBox="0.00 0.00 286.38 358.71" xmlns="http://www.w3.org/2000/svg" xmlns:xlink="http://www.w3.org/1999/xlink">
<g id="graph0" class="graph" transform="scale(1 1) rotate(0) translate(4 354.71)">
<title>G</title><style>.edge>path:hover{stroke-width:8}</style>
<polygon fill="white" stroke="none" points="-4,4 -4,-354.71 282.38,-354.71 282.38,4 -4,4"/>
<!-- gites -->
<g id="node1" class="node">
<title>gites</title><style>.edge>path:hover{stroke-width:8}</style>
<ellipse fill="#b65353" stroke="black" cx="27" cy="-131.63" rx="27" ry="18"/>
<text text-anchor="middle" x="27" y="-128.13" font-family="Helvetica,sans-Serif" font-size="10.00" fill="#ffffff">gites</text>
</g>
<!-- repo_cloner_py -->
<g id="node5" class="node">
<title>repo_cloner_py</title><style>.edge>path:hover{stroke-width:8}</style>
<ellipse fill="#529999" stroke="black" cx="158" cy="-18" rx="47.96" ry="18"/>
<text text-anchor="middle" x="158" y="-14.5" font-family="Helvetica,sans-Serif" font-size="10.00" fill="#000000">repo_cloner.py</text>
</g>
<!-- gites&#45;&gt;repo_cloner_py -->
<g id="edge1" class="edge">
<title>gites&#45;&gt;repo_cloner_py</title><style>.edge>path:hover{stroke-width:8}</style>
<path fill="none" stroke="black" d="M45.7,-118.53C51.17,-115.23 57.23,-111.8 63,-109 103.63,-89.3 143.88,-115.89 158,-73"/>
<path fill="none" stroke="black" d="M158,-72C160.55,-64.25 161.34,-55.51 161.27,-47.39"/>
<polygon fill="#b65353" stroke="black" points="164.78,-47.45 160.75,-37.65 157.79,-47.82 164.78,-47.45"/>
</g>
<!-- gites_subpackage -->
<g id="node2" class="node">
<title>gites_subpackage</title><style>.edge>path:hover{stroke-width:8}</style>
<ellipse fill="#b65353" stroke="black" cx="120" cy="-131.63" rx="48.44" ry="22.63"/>
<text text-anchor="middle" x="120" y="-134.13" font-family="Helvetica,sans-Serif" font-size="10.00" fill="#ffffff">gites.</text>
<text text-anchor="middle" x="120" y="-122.13" font-family="Helvetica,sans-Serif" font-size="10.00" fill="#ffffff">subpackage</text>
</g>
<!-- gites_subpackage&#45;&gt;repo_cloner_py -->
<g id="edge2" class="edge">
<title>gites_subpackage&#45;&gt;repo_cloner_py</title><style>.edge>path:hover{stroke-width:8}</style>
<path fill="none" stroke="black" d="M137.37,-110.15C145.16,-99.73 153.58,-86.43 158,-73"/>
</g>
<!-- gites_subpackage_config_json_handler -->
<g id="node3" class="node">
<title>gites_subpackage_config_json_handler</title><style>.edge>path:hover{stroke-width:8}</style>
<ellipse fill="#b65353" stroke="black" cx="196" cy="-319.59" rx="71.77" ry="31.11"/>
<text text-anchor="middle" x="196" y="-328.09" font-family="Helvetica,sans-Serif" font-size="10.00" fill="#ffffff">gites.</text>
<text text-anchor="middle" x="196" y="-316.09" font-family="Helvetica,sans-Serif" font-size="10.00" fill="#ffffff">subpackage.</text>
<text text-anchor="middle" x="196" y="-304.09" font-family="Helvetica,sans-Serif" font-size="10.00" fill="#ffffff">config_json_handler</text>
</g>
<!-- gites_subpackage_datastore_json_handler -->
<g id="node4" class="node">
<title>gites_subpackage_datastore_json_handler</title><style>.edge>path:hover{stroke-width:8}</style>
<ellipse fill="#b34c4c" stroke="black" cx="196" cy="-221.37" rx="82.38" ry="31.11"/>
<text text-anchor="middle" x="196" y="-229.87" font-family="Helvetica,sans-Serif" font-size="10.00" fill="#ffffff">gites.</text>
<text text-anchor="middle" x="196" y="-217.87" font-family="Helvetica,sans-Serif" font-size="10.00" fill="#ffffff">subpackage.</text>
<text text-anchor="middle" x="196" y="-205.87" font-family="Helvetica,sans-Serif" font-size="10.00" fill="#ffffff">datastore_json_handler</text>
</g>
<!-- gites_subpackage_config_json_handler&#45;&gt;gites_subpackage_datastore_json_handler -->
<g id="edge3" class="edge">
<title>gites_subpackage_config_json_handler&#45;&gt;gites_subpackage_datastore_json_handler</title><style>.edge>path:hover{stroke-width:8}</style>
<path fill="none" stroke="black" d="M196,-288.15C196,-280.6 196,-272.38 196,-264.39"/>
<polygon fill="#b65353" stroke="black" points="199.5,-264.46 196,-254.46 192.5,-264.46 199.5,-264.46"/>
</g>
<!-- gites_subpackage_datastore_json_handler&#45;&gt;repo_cloner_py -->
<g id="edge4" class="edge">
<title>gites_subpackage_datastore_json_handler&#45;&gt;repo_cloner_py</title><style>.edge>path:hover{stroke-width:8}</style>
<path fill="none" stroke="black" d="M193.43,-189.95C190.89,-167.2 186.02,-135.56 177,-109 171.18,-91.87 152.34,-90.18 158,-73"/>
</g>
</g>
</svg>
